<mxfile host="app.diagrams.net" agent="Mozilla/5.0 (Windows NT 10.0; Win64; x64) AppleWebKit/537.36 (KHTML, like Gecko) Chrome/128.0.0.0 Safari/537.36" version="24.7.12">
  <diagram name="Page-1" id="gYfwV9SUMD6ZlSehJ41c">
    <mxGraphModel dx="2537" dy="2018" grid="1" gridSize="10" guides="1" tooltips="1" connect="1" arrows="1" fold="1" page="1" pageScale="1" pageWidth="850" pageHeight="1100" math="0" shadow="0">
      <root>
        <mxCell id="0" />
        <mxCell id="1" parent="0" />
        <mxCell id="rwI5cfDztI2ORR7eqa7z-185" style="edgeStyle=orthogonalEdgeStyle;rounded=1;orthogonalLoop=1;jettySize=auto;html=1;entryX=0;entryY=0.5;entryDx=0;entryDy=0;curved=0;endArrow=none;endFill=0;exitX=0.981;exitY=0.155;exitDx=0;exitDy=0;exitPerimeter=0;" edge="1" parent="1" source="rwI5cfDztI2ORR7eqa7z-65" target="rwI5cfDztI2ORR7eqa7z-180">
          <mxGeometry relative="1" as="geometry" />
        </mxCell>
        <mxCell id="rwI5cfDztI2ORR7eqa7z-186" value="(0, n)" style="edgeLabel;html=1;align=center;verticalAlign=middle;resizable=0;points=[];" vertex="1" connectable="0" parent="rwI5cfDztI2ORR7eqa7z-185">
          <mxGeometry x="-0.3419" y="-3" relative="1" as="geometry">
            <mxPoint as="offset" />
          </mxGeometry>
        </mxCell>
        <mxCell id="rwI5cfDztI2ORR7eqa7z-65" value="DMNS" style="swimlane;childLayout=stackLayout;horizontal=1;startSize=50;horizontalStack=0;rounded=1;fontSize=14;fontStyle=0;strokeWidth=2;resizeParent=0;resizeLast=1;shadow=0;dashed=0;align=center;arcSize=4;whiteSpace=wrap;html=1;" vertex="1" parent="1">
          <mxGeometry x="360" y="120" width="160" height="220" as="geometry" />
        </mxCell>
        <mxCell id="rwI5cfDztI2ORR7eqa7z-66" value="MSNS&lt;div&gt;TEN&lt;/div&gt;&lt;div&gt;NU&lt;/div&gt;&lt;div&gt;NGAYSINH&lt;/div&gt;&lt;div&gt;NGAYTUYEN&lt;/div&gt;&lt;div&gt;SODT&lt;/div&gt;&lt;div&gt;HINH&lt;/div&gt;&lt;div&gt;MSCM&lt;/div&gt;&lt;div&gt;MSTD&lt;/div&gt;&lt;div&gt;MSDV&lt;/div&gt;&lt;div&gt;MSCV&lt;/div&gt;" style="align=left;strokeColor=none;fillColor=none;spacingLeft=4;fontSize=12;verticalAlign=top;resizable=0;rotatable=0;part=1;html=1;" vertex="1" parent="rwI5cfDztI2ORR7eqa7z-65">
          <mxGeometry y="50" width="160" height="170" as="geometry" />
        </mxCell>
        <mxCell id="rwI5cfDztI2ORR7eqa7z-67" value="DMKTRU" style="swimlane;childLayout=stackLayout;horizontal=1;startSize=50;horizontalStack=0;rounded=1;fontSize=14;fontStyle=0;strokeWidth=2;resizeParent=0;resizeLast=1;shadow=0;dashed=0;align=center;arcSize=4;whiteSpace=wrap;html=1;" vertex="1" parent="1">
          <mxGeometry x="560" y="550" width="160" height="120" as="geometry" />
        </mxCell>
        <mxCell id="rwI5cfDztI2ORR7eqa7z-68" value="MSKTRU&lt;div&gt;TEN&lt;/div&gt;&lt;div&gt;SOTIEN&lt;/div&gt;&lt;div&gt;GHICHU&lt;/div&gt;" style="align=left;strokeColor=none;fillColor=none;spacingLeft=4;fontSize=12;verticalAlign=top;resizable=0;rotatable=0;part=1;html=1;" vertex="1" parent="rwI5cfDztI2ORR7eqa7z-67">
          <mxGeometry y="50" width="160" height="70" as="geometry" />
        </mxCell>
        <mxCell id="rwI5cfDztI2ORR7eqa7z-69" value="CTKTRU" style="swimlane;childLayout=stackLayout;horizontal=1;startSize=50;horizontalStack=0;rounded=1;fontSize=14;fontStyle=0;strokeWidth=2;resizeParent=0;resizeLast=1;shadow=0;dashed=0;align=center;arcSize=4;whiteSpace=wrap;html=1;" vertex="1" parent="1">
          <mxGeometry x="350" y="480" width="160" height="120" as="geometry" />
        </mxCell>
        <mxCell id="rwI5cfDztI2ORR7eqa7z-70" value="MSPHIEU&lt;div&gt;MSKCONG&lt;/div&gt;&lt;div&gt;HS&lt;/div&gt;" style="align=left;strokeColor=none;fillColor=none;spacingLeft=4;fontSize=12;verticalAlign=top;resizable=0;rotatable=0;part=1;html=1;" vertex="1" parent="rwI5cfDztI2ORR7eqa7z-69">
          <mxGeometry y="50" width="160" height="70" as="geometry" />
        </mxCell>
        <mxCell id="rwI5cfDztI2ORR7eqa7z-71" value="CTKCONG" style="swimlane;childLayout=stackLayout;horizontal=1;startSize=50;horizontalStack=0;rounded=1;fontSize=14;fontStyle=0;strokeWidth=2;resizeParent=0;resizeLast=1;shadow=0;dashed=0;align=center;arcSize=4;whiteSpace=wrap;html=1;" vertex="1" parent="1">
          <mxGeometry x="-40" y="470" width="160" height="120" as="geometry" />
        </mxCell>
        <mxCell id="rwI5cfDztI2ORR7eqa7z-72" value="MSPHIEU&lt;div&gt;MSKCONG&lt;/div&gt;&lt;div&gt;HS&lt;/div&gt;&lt;div&gt;&lt;br&gt;&lt;/div&gt;" style="align=left;strokeColor=none;fillColor=none;spacingLeft=4;fontSize=12;verticalAlign=top;resizable=0;rotatable=0;part=1;html=1;" vertex="1" parent="rwI5cfDztI2ORR7eqa7z-71">
          <mxGeometry y="50" width="160" height="70" as="geometry" />
        </mxCell>
        <mxCell id="rwI5cfDztI2ORR7eqa7z-73" value="PHIEULUONG" style="swimlane;childLayout=stackLayout;horizontal=1;startSize=50;horizontalStack=0;rounded=1;fontSize=14;fontStyle=0;strokeWidth=2;resizeParent=0;resizeLast=1;shadow=0;dashed=0;align=center;arcSize=9;whiteSpace=wrap;html=1;" vertex="1" parent="1">
          <mxGeometry x="160" y="320" width="160" height="150" as="geometry">
            <mxRectangle x="160" y="360" width="130" height="50" as="alternateBounds" />
          </mxGeometry>
        </mxCell>
        <mxCell id="rwI5cfDztI2ORR7eqa7z-74" value="MSPHIEU&lt;div&gt;MSNS&lt;/div&gt;&lt;div&gt;MSKY&lt;/div&gt;&lt;div&gt;MUCLUONG&lt;/div&gt;&lt;div&gt;TONGHS&lt;/div&gt;&lt;div&gt;GHICHU&lt;/div&gt;" style="align=left;strokeColor=none;fillColor=none;spacingLeft=4;fontSize=12;verticalAlign=top;resizable=0;rotatable=0;part=1;html=1;" vertex="1" parent="rwI5cfDztI2ORR7eqa7z-73">
          <mxGeometry y="50" width="160" height="100" as="geometry" />
        </mxCell>
        <mxCell id="rwI5cfDztI2ORR7eqa7z-75" value="KYLUONG" style="swimlane;childLayout=stackLayout;horizontal=1;startSize=50;horizontalStack=0;rounded=1;fontSize=14;fontStyle=0;strokeWidth=2;resizeParent=0;resizeLast=1;shadow=0;dashed=0;align=center;arcSize=4;whiteSpace=wrap;html=1;" vertex="1" parent="1">
          <mxGeometry x="-40" y="120" width="160" height="220" as="geometry" />
        </mxCell>
        <mxCell id="rwI5cfDztI2ORR7eqa7z-76" value="MSKY&lt;div&gt;NAM&lt;/div&gt;&lt;div&gt;THANG&lt;/div&gt;&lt;div&gt;GHICHU&lt;/div&gt;" style="align=left;strokeColor=none;fillColor=none;spacingLeft=4;fontSize=12;verticalAlign=top;resizable=0;rotatable=0;part=1;html=1;" vertex="1" parent="rwI5cfDztI2ORR7eqa7z-75">
          <mxGeometry y="50" width="160" height="170" as="geometry" />
        </mxCell>
        <mxCell id="rwI5cfDztI2ORR7eqa7z-77" value="BANGCHAMCONG" style="swimlane;childLayout=stackLayout;horizontal=1;startSize=50;horizontalStack=0;rounded=1;fontSize=14;fontStyle=0;strokeWidth=2;resizeParent=0;resizeLast=1;shadow=0;dashed=0;align=center;arcSize=4;whiteSpace=wrap;html=1;" vertex="1" parent="1">
          <mxGeometry x="160" y="-20" width="160" height="140" as="geometry" />
        </mxCell>
        <mxCell id="rwI5cfDztI2ORR7eqa7z-78" value="MSNS&lt;div&gt;MSKY&lt;/div&gt;&lt;div&gt;SONGAYCHUAN&lt;/div&gt;&lt;div&gt;SONGAYLV&lt;/div&gt;&lt;div&gt;GHICHU&lt;/div&gt;" style="align=left;strokeColor=none;fillColor=none;spacingLeft=4;fontSize=12;verticalAlign=top;resizable=0;rotatable=0;part=1;html=1;" vertex="1" parent="rwI5cfDztI2ORR7eqa7z-77">
          <mxGeometry y="50" width="160" height="90" as="geometry" />
        </mxCell>
        <mxCell id="rwI5cfDztI2ORR7eqa7z-79" value="DMCV" style="swimlane;childLayout=stackLayout;horizontal=1;startSize=50;horizontalStack=0;rounded=1;fontSize=14;fontStyle=0;strokeWidth=2;resizeParent=0;resizeLast=1;shadow=0;dashed=0;align=center;arcSize=4;whiteSpace=wrap;html=1;" vertex="1" parent="1">
          <mxGeometry x="535" y="375" width="160" height="120" as="geometry" />
        </mxCell>
        <mxCell id="rwI5cfDztI2ORR7eqa7z-80" value="MSCV&lt;div&gt;TEN&lt;/div&gt;&lt;div&gt;HS&lt;/div&gt;&lt;div&gt;GHICHU&lt;/div&gt;" style="align=left;strokeColor=none;fillColor=none;spacingLeft=4;fontSize=12;verticalAlign=top;resizable=0;rotatable=0;part=1;html=1;" vertex="1" parent="rwI5cfDztI2ORR7eqa7z-79">
          <mxGeometry y="50" width="160" height="70" as="geometry" />
        </mxCell>
        <mxCell id="rwI5cfDztI2ORR7eqa7z-81" value="DMDV" style="swimlane;childLayout=stackLayout;horizontal=1;startSize=50;horizontalStack=0;rounded=1;fontSize=14;fontStyle=0;strokeWidth=2;resizeParent=0;resizeLast=1;shadow=0;dashed=0;align=center;arcSize=4;whiteSpace=wrap;html=1;" vertex="1" parent="1">
          <mxGeometry x="680" y="200" width="160" height="120" as="geometry" />
        </mxCell>
        <mxCell id="rwI5cfDztI2ORR7eqa7z-82" value="&lt;div&gt;MSDV&lt;div&gt;TEN&lt;/div&gt;&lt;div&gt;HS&lt;/div&gt;&lt;div&gt;GHICHU&lt;/div&gt;&lt;/div&gt;" style="align=left;strokeColor=none;fillColor=none;spacingLeft=4;fontSize=12;verticalAlign=top;resizable=0;rotatable=0;part=1;html=1;" vertex="1" parent="rwI5cfDztI2ORR7eqa7z-81">
          <mxGeometry y="50" width="160" height="70" as="geometry" />
        </mxCell>
        <mxCell id="rwI5cfDztI2ORR7eqa7z-83" value="DMTD" style="swimlane;childLayout=stackLayout;horizontal=1;startSize=50;horizontalStack=0;rounded=1;fontSize=14;fontStyle=0;strokeWidth=2;resizeParent=0;resizeLast=1;shadow=0;dashed=0;align=center;arcSize=4;whiteSpace=wrap;html=1;" vertex="1" parent="1">
          <mxGeometry x="680" y="60" width="160" height="120" as="geometry" />
        </mxCell>
        <mxCell id="rwI5cfDztI2ORR7eqa7z-84" value="MSTD&lt;div&gt;TEN&lt;/div&gt;&lt;div&gt;HS&lt;/div&gt;&lt;div&gt;GHICHU&lt;/div&gt;" style="align=left;strokeColor=none;fillColor=none;spacingLeft=4;fontSize=12;verticalAlign=top;resizable=0;rotatable=0;part=1;html=1;" vertex="1" parent="rwI5cfDztI2ORR7eqa7z-83">
          <mxGeometry y="50" width="160" height="70" as="geometry" />
        </mxCell>
        <mxCell id="rwI5cfDztI2ORR7eqa7z-85" value="DMCM" style="swimlane;childLayout=stackLayout;horizontal=1;startSize=50;horizontalStack=0;rounded=1;fontSize=14;fontStyle=0;strokeWidth=2;resizeParent=0;resizeLast=1;shadow=0;dashed=0;align=center;arcSize=4;whiteSpace=wrap;html=1;" vertex="1" parent="1">
          <mxGeometry x="680" y="-80" width="160" height="120" as="geometry" />
        </mxCell>
        <mxCell id="rwI5cfDztI2ORR7eqa7z-86" value="MSCM&lt;div&gt;TEN&lt;/div&gt;&lt;div&gt;HS&lt;/div&gt;&lt;div&gt;GHICHU&lt;/div&gt;" style="align=left;strokeColor=none;fillColor=none;spacingLeft=4;fontSize=12;verticalAlign=top;resizable=0;rotatable=0;part=1;html=1;" vertex="1" parent="rwI5cfDztI2ORR7eqa7z-85">
          <mxGeometry y="50" width="160" height="70" as="geometry" />
        </mxCell>
        <mxCell id="rwI5cfDztI2ORR7eqa7z-94" value="DMKCONG" style="swimlane;childLayout=stackLayout;horizontal=1;startSize=50;horizontalStack=0;rounded=1;fontSize=14;fontStyle=0;strokeWidth=2;resizeParent=0;resizeLast=1;shadow=0;dashed=0;align=center;arcSize=4;whiteSpace=wrap;html=1;" vertex="1" parent="1">
          <mxGeometry x="170" y="610" width="160" height="120" as="geometry" />
        </mxCell>
        <mxCell id="rwI5cfDztI2ORR7eqa7z-95" value="MSKCONG&lt;div&gt;TEN&lt;/div&gt;&lt;div&gt;SOTIEN&lt;/div&gt;&lt;div&gt;GHICHU&lt;/div&gt;" style="align=left;strokeColor=none;fillColor=none;spacingLeft=4;fontSize=12;verticalAlign=top;resizable=0;rotatable=0;part=1;html=1;" vertex="1" parent="rwI5cfDztI2ORR7eqa7z-94">
          <mxGeometry y="50" width="160" height="70" as="geometry" />
        </mxCell>
        <mxCell id="rwI5cfDztI2ORR7eqa7z-124" style="edgeStyle=orthogonalEdgeStyle;rounded=1;orthogonalLoop=1;jettySize=auto;html=1;curved=0;endArrow=none;endFill=0;" edge="1" parent="1" source="rwI5cfDztI2ORR7eqa7z-122">
          <mxGeometry relative="1" as="geometry">
            <mxPoint x="520" y="120" as="targetPoint" />
            <Array as="points">
              <mxPoint x="615" y="120" />
            </Array>
          </mxGeometry>
        </mxCell>
        <mxCell id="rwI5cfDztI2ORR7eqa7z-126" value="(0, n)" style="edgeLabel;html=1;align=center;verticalAlign=middle;resizable=0;points=[];" vertex="1" connectable="0" parent="rwI5cfDztI2ORR7eqa7z-124">
          <mxGeometry x="0.05" relative="1" as="geometry">
            <mxPoint x="-44" as="offset" />
          </mxGeometry>
        </mxCell>
        <mxCell id="rwI5cfDztI2ORR7eqa7z-125" style="edgeStyle=orthogonalEdgeStyle;rounded=1;orthogonalLoop=1;jettySize=auto;html=1;entryX=0;entryY=0.25;entryDx=0;entryDy=0;endArrow=none;endFill=0;curved=0;exitX=0.5;exitY=0;exitDx=0;exitDy=0;" edge="1" parent="1" source="rwI5cfDztI2ORR7eqa7z-122" target="rwI5cfDztI2ORR7eqa7z-86">
          <mxGeometry relative="1" as="geometry">
            <mxPoint x="335" y="40" as="targetPoint" />
          </mxGeometry>
        </mxCell>
        <mxCell id="rwI5cfDztI2ORR7eqa7z-127" value="(1,1)" style="edgeLabel;html=1;align=center;verticalAlign=middle;resizable=0;points=[];" vertex="1" connectable="0" parent="rwI5cfDztI2ORR7eqa7z-125">
          <mxGeometry x="0.4" relative="1" as="geometry">
            <mxPoint x="-10" y="3" as="offset" />
          </mxGeometry>
        </mxCell>
        <mxCell id="rwI5cfDztI2ORR7eqa7z-122" value="Có" style="rhombus;whiteSpace=wrap;html=1;fontSize=14;fontStyle=0;startSize=50;rounded=1;strokeWidth=2;shadow=0;dashed=0;arcSize=4;" vertex="1" parent="1">
          <mxGeometry x="580" y="30" width="70" height="50" as="geometry" />
        </mxCell>
        <mxCell id="rwI5cfDztI2ORR7eqa7z-131" style="edgeStyle=orthogonalEdgeStyle;rounded=1;orthogonalLoop=1;jettySize=auto;html=1;entryX=0.75;entryY=1;entryDx=0;entryDy=0;curved=0;endArrow=none;endFill=0;" edge="1" parent="1" source="rwI5cfDztI2ORR7eqa7z-135" target="rwI5cfDztI2ORR7eqa7z-74">
          <mxGeometry relative="1" as="geometry">
            <mxPoint x="650" y="-190" as="targetPoint" />
            <Array as="points">
              <mxPoint x="285" y="470" />
            </Array>
          </mxGeometry>
        </mxCell>
        <mxCell id="rwI5cfDztI2ORR7eqa7z-132" value="(1, 1)" style="edgeLabel;html=1;align=center;verticalAlign=middle;resizable=0;points=[];" vertex="1" connectable="0" parent="rwI5cfDztI2ORR7eqa7z-131">
          <mxGeometry x="0.05" relative="1" as="geometry">
            <mxPoint as="offset" />
          </mxGeometry>
        </mxCell>
        <mxCell id="rwI5cfDztI2ORR7eqa7z-212" style="edgeStyle=orthogonalEdgeStyle;rounded=1;orthogonalLoop=1;jettySize=auto;html=1;entryX=0;entryY=0.25;entryDx=0;entryDy=0;curved=0;endArrow=none;endFill=0;" edge="1" parent="1" source="rwI5cfDztI2ORR7eqa7z-135" target="rwI5cfDztI2ORR7eqa7z-70">
          <mxGeometry relative="1" as="geometry" />
        </mxCell>
        <mxCell id="rwI5cfDztI2ORR7eqa7z-214" value="(0, n)" style="edgeLabel;html=1;align=center;verticalAlign=middle;resizable=0;points=[];" vertex="1" connectable="0" parent="rwI5cfDztI2ORR7eqa7z-212">
          <mxGeometry x="-0.0769" y="1" relative="1" as="geometry">
            <mxPoint as="offset" />
          </mxGeometry>
        </mxCell>
        <mxCell id="rwI5cfDztI2ORR7eqa7z-135" value="Có" style="rhombus;whiteSpace=wrap;html=1;fontSize=14;fontStyle=0;startSize=50;rounded=1;strokeWidth=2;shadow=0;dashed=0;arcSize=4;" vertex="1" parent="1">
          <mxGeometry x="250" y="520" width="70" height="50" as="geometry" />
        </mxCell>
        <mxCell id="rwI5cfDztI2ORR7eqa7z-138" style="edgeStyle=orthogonalEdgeStyle;rounded=1;orthogonalLoop=1;jettySize=auto;html=1;entryX=0.319;entryY=0.99;entryDx=0;entryDy=0;endArrow=none;endFill=0;curved=0;entryPerimeter=0;" edge="1" parent="1" source="rwI5cfDztI2ORR7eqa7z-140" target="rwI5cfDztI2ORR7eqa7z-74">
          <mxGeometry relative="1" as="geometry">
            <mxPoint x="660" y="-310" as="targetPoint" />
            <Array as="points">
              <mxPoint x="205" y="469" />
            </Array>
          </mxGeometry>
        </mxCell>
        <mxCell id="rwI5cfDztI2ORR7eqa7z-139" value="(1,1)" style="edgeLabel;html=1;align=center;verticalAlign=middle;resizable=0;points=[];" vertex="1" connectable="0" parent="rwI5cfDztI2ORR7eqa7z-138">
          <mxGeometry x="0.4" relative="1" as="geometry">
            <mxPoint y="10" as="offset" />
          </mxGeometry>
        </mxCell>
        <mxCell id="rwI5cfDztI2ORR7eqa7z-140" value="Có" style="rhombus;whiteSpace=wrap;html=1;fontSize=14;fontStyle=0;startSize=50;rounded=1;strokeWidth=2;shadow=0;dashed=0;arcSize=4;" vertex="1" parent="1">
          <mxGeometry x="170" y="520" width="70" height="50" as="geometry" />
        </mxCell>
        <mxCell id="rwI5cfDztI2ORR7eqa7z-141" style="edgeStyle=orthogonalEdgeStyle;rounded=1;orthogonalLoop=1;jettySize=auto;html=1;entryX=0.5;entryY=1;entryDx=0;entryDy=0;curved=0;endArrow=none;endFill=0;" edge="1" parent="1" source="rwI5cfDztI2ORR7eqa7z-145" target="rwI5cfDztI2ORR7eqa7z-66">
          <mxGeometry relative="1" as="geometry">
            <mxPoint x="670" y="-170" as="targetPoint" />
          </mxGeometry>
        </mxCell>
        <mxCell id="rwI5cfDztI2ORR7eqa7z-142" value="(1, 1)" style="edgeLabel;html=1;align=center;verticalAlign=middle;resizable=0;points=[];" vertex="1" connectable="0" parent="rwI5cfDztI2ORR7eqa7z-141">
          <mxGeometry x="0.05" relative="1" as="geometry">
            <mxPoint as="offset" />
          </mxGeometry>
        </mxCell>
        <mxCell id="rwI5cfDztI2ORR7eqa7z-143" style="edgeStyle=orthogonalEdgeStyle;rounded=1;orthogonalLoop=1;jettySize=auto;html=1;entryX=1.019;entryY=0.35;entryDx=0;entryDy=0;endArrow=none;endFill=0;curved=0;entryPerimeter=0;" edge="1" parent="1" source="rwI5cfDztI2ORR7eqa7z-145" target="rwI5cfDztI2ORR7eqa7z-74">
          <mxGeometry relative="1" as="geometry">
            <mxPoint x="670" y="-300" as="targetPoint" />
          </mxGeometry>
        </mxCell>
        <mxCell id="rwI5cfDztI2ORR7eqa7z-144" value="(1, n)" style="edgeLabel;html=1;align=center;verticalAlign=middle;resizable=0;points=[];" vertex="1" connectable="0" parent="rwI5cfDztI2ORR7eqa7z-143">
          <mxGeometry x="0.4" relative="1" as="geometry">
            <mxPoint as="offset" />
          </mxGeometry>
        </mxCell>
        <mxCell id="rwI5cfDztI2ORR7eqa7z-145" value="Có" style="rhombus;whiteSpace=wrap;html=1;fontSize=14;fontStyle=0;startSize=50;rounded=1;strokeWidth=2;shadow=0;dashed=0;arcSize=4;" vertex="1" parent="1">
          <mxGeometry x="405" y="380" width="70" height="50" as="geometry" />
        </mxCell>
        <mxCell id="rwI5cfDztI2ORR7eqa7z-146" style="edgeStyle=orthogonalEdgeStyle;rounded=1;orthogonalLoop=1;jettySize=auto;html=1;entryX=0.5;entryY=0;entryDx=0;entryDy=0;curved=0;endArrow=none;endFill=0;exitX=0.5;exitY=1;exitDx=0;exitDy=0;" edge="1" parent="1" source="rwI5cfDztI2ORR7eqa7z-150" target="rwI5cfDztI2ORR7eqa7z-73">
          <mxGeometry relative="1" as="geometry">
            <mxPoint x="680" y="-160" as="targetPoint" />
          </mxGeometry>
        </mxCell>
        <mxCell id="rwI5cfDztI2ORR7eqa7z-147" value="(1, 1)" style="edgeLabel;html=1;align=center;verticalAlign=middle;resizable=0;points=[];" vertex="1" connectable="0" parent="rwI5cfDztI2ORR7eqa7z-146">
          <mxGeometry x="0.05" relative="1" as="geometry">
            <mxPoint as="offset" />
          </mxGeometry>
        </mxCell>
        <mxCell id="rwI5cfDztI2ORR7eqa7z-148" style="edgeStyle=orthogonalEdgeStyle;rounded=1;orthogonalLoop=1;jettySize=auto;html=1;entryX=0.5;entryY=1;entryDx=0;entryDy=0;endArrow=none;endFill=0;curved=0;exitX=0.5;exitY=0;exitDx=0;exitDy=0;" edge="1" parent="1" source="rwI5cfDztI2ORR7eqa7z-150" target="rwI5cfDztI2ORR7eqa7z-78">
          <mxGeometry relative="1" as="geometry">
            <mxPoint x="680" y="-290" as="targetPoint" />
          </mxGeometry>
        </mxCell>
        <mxCell id="rwI5cfDztI2ORR7eqa7z-149" value="(1,1)" style="edgeLabel;html=1;align=center;verticalAlign=middle;resizable=0;points=[];" vertex="1" connectable="0" parent="rwI5cfDztI2ORR7eqa7z-148">
          <mxGeometry x="0.4" relative="1" as="geometry">
            <mxPoint as="offset" />
          </mxGeometry>
        </mxCell>
        <mxCell id="rwI5cfDztI2ORR7eqa7z-150" value="Lập" style="rhombus;whiteSpace=wrap;html=1;fontSize=14;fontStyle=0;startSize=50;rounded=1;strokeWidth=2;shadow=0;dashed=0;arcSize=4;" vertex="1" parent="1">
          <mxGeometry x="205" y="205" width="70" height="50" as="geometry" />
        </mxCell>
        <mxCell id="rwI5cfDztI2ORR7eqa7z-151" style="edgeStyle=orthogonalEdgeStyle;rounded=1;orthogonalLoop=1;jettySize=auto;html=1;entryX=0;entryY=0.34;entryDx=0;entryDy=0;curved=0;endArrow=none;endFill=0;exitX=1;exitY=0.5;exitDx=0;exitDy=0;entryPerimeter=0;" edge="1" parent="1" source="rwI5cfDztI2ORR7eqa7z-155" target="rwI5cfDztI2ORR7eqa7z-74">
          <mxGeometry relative="1" as="geometry">
            <mxPoint x="101.96000000000004" y="443" as="targetPoint" />
            <mxPoint x="-30" y="445" as="sourcePoint" />
            <Array as="points">
              <mxPoint x="70" y="404" />
            </Array>
          </mxGeometry>
        </mxCell>
        <mxCell id="rwI5cfDztI2ORR7eqa7z-152" value="(1, n)" style="edgeLabel;html=1;align=center;verticalAlign=middle;resizable=0;points=[];" vertex="1" connectable="0" parent="rwI5cfDztI2ORR7eqa7z-151">
          <mxGeometry x="0.05" relative="1" as="geometry">
            <mxPoint as="offset" />
          </mxGeometry>
        </mxCell>
        <mxCell id="rwI5cfDztI2ORR7eqa7z-153" style="edgeStyle=orthogonalEdgeStyle;rounded=1;orthogonalLoop=1;jettySize=auto;html=1;endArrow=none;endFill=0;curved=0;exitX=0.5;exitY=0;exitDx=0;exitDy=0;entryX=0.5;entryY=1;entryDx=0;entryDy=0;" edge="1" parent="1" source="rwI5cfDztI2ORR7eqa7z-155" target="rwI5cfDztI2ORR7eqa7z-76">
          <mxGeometry relative="1" as="geometry">
            <mxPoint x="690" y="-280" as="targetPoint" />
            <Array as="points">
              <mxPoint x="40" y="420" />
            </Array>
          </mxGeometry>
        </mxCell>
        <mxCell id="rwI5cfDztI2ORR7eqa7z-154" value="(1,1)" style="edgeLabel;html=1;align=center;verticalAlign=middle;resizable=0;points=[];" vertex="1" connectable="0" parent="rwI5cfDztI2ORR7eqa7z-153">
          <mxGeometry x="0.4" relative="1" as="geometry">
            <mxPoint y="-24" as="offset" />
          </mxGeometry>
        </mxCell>
        <mxCell id="rwI5cfDztI2ORR7eqa7z-155" value="Thuộc" style="rhombus;whiteSpace=wrap;html=1;fontSize=14;fontStyle=0;startSize=50;rounded=1;strokeWidth=2;shadow=0;dashed=0;arcSize=4;" vertex="1" parent="1">
          <mxGeometry x="5" y="380" width="70" height="50" as="geometry" />
        </mxCell>
        <mxCell id="rwI5cfDztI2ORR7eqa7z-156" style="edgeStyle=orthogonalEdgeStyle;rounded=1;orthogonalLoop=1;jettySize=auto;html=1;curved=0;endArrow=none;endFill=0;" edge="1" parent="1" source="rwI5cfDztI2ORR7eqa7z-160" target="rwI5cfDztI2ORR7eqa7z-75">
          <mxGeometry relative="1" as="geometry">
            <mxPoint x="700" y="-140" as="targetPoint" />
          </mxGeometry>
        </mxCell>
        <mxCell id="rwI5cfDztI2ORR7eqa7z-157" value="(1, 1)" style="edgeLabel;html=1;align=center;verticalAlign=middle;resizable=0;points=[];" vertex="1" connectable="0" parent="rwI5cfDztI2ORR7eqa7z-156">
          <mxGeometry x="0.05" relative="1" as="geometry">
            <mxPoint y="-3" as="offset" />
          </mxGeometry>
        </mxCell>
        <mxCell id="rwI5cfDztI2ORR7eqa7z-158" style="edgeStyle=orthogonalEdgeStyle;rounded=1;orthogonalLoop=1;jettySize=auto;html=1;entryX=-0.006;entryY=0.167;entryDx=0;entryDy=0;endArrow=none;endFill=0;curved=0;entryPerimeter=0;" edge="1" parent="1" source="rwI5cfDztI2ORR7eqa7z-160" target="rwI5cfDztI2ORR7eqa7z-78">
          <mxGeometry relative="1" as="geometry">
            <mxPoint x="700" y="-270" as="targetPoint" />
          </mxGeometry>
        </mxCell>
        <mxCell id="rwI5cfDztI2ORR7eqa7z-159" value="(1, n)" style="edgeLabel;html=1;align=center;verticalAlign=middle;resizable=0;points=[];" vertex="1" connectable="0" parent="rwI5cfDztI2ORR7eqa7z-158">
          <mxGeometry x="0.4" relative="1" as="geometry">
            <mxPoint as="offset" />
          </mxGeometry>
        </mxCell>
        <mxCell id="rwI5cfDztI2ORR7eqa7z-160" value="Thuộc" style="rhombus;whiteSpace=wrap;html=1;fontSize=14;fontStyle=0;startSize=50;rounded=1;strokeWidth=2;shadow=0;dashed=0;arcSize=4;" vertex="1" parent="1">
          <mxGeometry x="5" y="20" width="70" height="50" as="geometry" />
        </mxCell>
        <mxCell id="rwI5cfDztI2ORR7eqa7z-161" style="edgeStyle=orthogonalEdgeStyle;rounded=1;orthogonalLoop=1;jettySize=auto;html=1;curved=0;endArrow=none;endFill=0;entryX=1;entryY=0.25;entryDx=0;entryDy=0;" edge="1" parent="1" source="rwI5cfDztI2ORR7eqa7z-165" target="rwI5cfDztI2ORR7eqa7z-78">
          <mxGeometry relative="1" as="geometry">
            <mxPoint x="710" y="-130" as="targetPoint" />
          </mxGeometry>
        </mxCell>
        <mxCell id="rwI5cfDztI2ORR7eqa7z-162" value="(1, n)" style="edgeLabel;html=1;align=center;verticalAlign=middle;resizable=0;points=[];" vertex="1" connectable="0" parent="rwI5cfDztI2ORR7eqa7z-161">
          <mxGeometry x="0.05" relative="1" as="geometry">
            <mxPoint as="offset" />
          </mxGeometry>
        </mxCell>
        <mxCell id="rwI5cfDztI2ORR7eqa7z-163" style="edgeStyle=orthogonalEdgeStyle;rounded=1;orthogonalLoop=1;jettySize=auto;html=1;entryX=0.5;entryY=0;entryDx=0;entryDy=0;endArrow=none;endFill=0;curved=0;" edge="1" parent="1" source="rwI5cfDztI2ORR7eqa7z-165" target="rwI5cfDztI2ORR7eqa7z-65">
          <mxGeometry relative="1" as="geometry">
            <mxPoint x="710" y="-260" as="targetPoint" />
          </mxGeometry>
        </mxCell>
        <mxCell id="rwI5cfDztI2ORR7eqa7z-164" value="(1, 1)" style="edgeLabel;html=1;align=center;verticalAlign=middle;resizable=0;points=[];" vertex="1" connectable="0" parent="rwI5cfDztI2ORR7eqa7z-163">
          <mxGeometry x="0.4" relative="1" as="geometry">
            <mxPoint as="offset" />
          </mxGeometry>
        </mxCell>
        <mxCell id="rwI5cfDztI2ORR7eqa7z-165" value="Có" style="rhombus;whiteSpace=wrap;html=1;fontSize=14;fontStyle=0;startSize=50;rounded=1;strokeWidth=2;shadow=0;dashed=0;arcSize=4;" vertex="1" parent="1">
          <mxGeometry x="405" y="30" width="70" height="50" as="geometry" />
        </mxCell>
        <mxCell id="rwI5cfDztI2ORR7eqa7z-166" style="edgeStyle=orthogonalEdgeStyle;rounded=1;orthogonalLoop=1;jettySize=auto;html=1;curved=0;endArrow=none;endFill=0;exitX=0.5;exitY=0;exitDx=0;exitDy=0;" edge="1" parent="1" source="rwI5cfDztI2ORR7eqa7z-170">
          <mxGeometry relative="1" as="geometry">
            <mxPoint x="520" y="286" as="targetPoint" />
            <Array as="points">
              <mxPoint x="615" y="286" />
            </Array>
          </mxGeometry>
        </mxCell>
        <mxCell id="rwI5cfDztI2ORR7eqa7z-167" value="(0, n)" style="edgeLabel;html=1;align=center;verticalAlign=middle;resizable=0;points=[];" vertex="1" connectable="0" parent="rwI5cfDztI2ORR7eqa7z-166">
          <mxGeometry x="0.05" relative="1" as="geometry">
            <mxPoint as="offset" />
          </mxGeometry>
        </mxCell>
        <mxCell id="rwI5cfDztI2ORR7eqa7z-168" style="edgeStyle=orthogonalEdgeStyle;rounded=1;orthogonalLoop=1;jettySize=auto;html=1;endArrow=none;endFill=0;curved=0;exitX=0.5;exitY=1;exitDx=0;exitDy=0;entryX=0.5;entryY=0;entryDx=0;entryDy=0;" edge="1" parent="1" source="rwI5cfDztI2ORR7eqa7z-170" target="rwI5cfDztI2ORR7eqa7z-79">
          <mxGeometry relative="1" as="geometry">
            <mxPoint x="691" y="470" as="targetPoint" />
            <Array as="points">
              <mxPoint x="615" y="380" />
              <mxPoint x="615" y="380" />
            </Array>
          </mxGeometry>
        </mxCell>
        <mxCell id="rwI5cfDztI2ORR7eqa7z-169" value="(1,1)" style="edgeLabel;html=1;align=center;verticalAlign=middle;resizable=0;points=[];" vertex="1" connectable="0" parent="rwI5cfDztI2ORR7eqa7z-168">
          <mxGeometry x="0.4" relative="1" as="geometry">
            <mxPoint y="-4" as="offset" />
          </mxGeometry>
        </mxCell>
        <mxCell id="rwI5cfDztI2ORR7eqa7z-170" value="Có" style="rhombus;whiteSpace=wrap;html=1;fontSize=14;fontStyle=0;startSize=50;rounded=1;strokeWidth=2;shadow=0;dashed=0;arcSize=4;" vertex="1" parent="1">
          <mxGeometry x="580" y="300" width="70" height="50" as="geometry" />
        </mxCell>
        <mxCell id="rwI5cfDztI2ORR7eqa7z-171" style="edgeStyle=orthogonalEdgeStyle;rounded=1;orthogonalLoop=1;jettySize=auto;html=1;curved=0;endArrow=none;endFill=0;entryX=1;entryY=0.25;entryDx=0;entryDy=0;" edge="1" parent="1" source="rwI5cfDztI2ORR7eqa7z-175" target="rwI5cfDztI2ORR7eqa7z-66">
          <mxGeometry relative="1" as="geometry">
            <mxPoint x="550" y="270" as="targetPoint" />
            <Array as="points">
              <mxPoint x="520" y="230" />
            </Array>
          </mxGeometry>
        </mxCell>
        <mxCell id="rwI5cfDztI2ORR7eqa7z-187" value="(0, n)" style="edgeLabel;html=1;align=center;verticalAlign=middle;resizable=0;points=[];" vertex="1" connectable="0" parent="rwI5cfDztI2ORR7eqa7z-171">
          <mxGeometry x="0.1836" y="-3" relative="1" as="geometry">
            <mxPoint as="offset" />
          </mxGeometry>
        </mxCell>
        <mxCell id="rwI5cfDztI2ORR7eqa7z-173" style="edgeStyle=orthogonalEdgeStyle;rounded=1;orthogonalLoop=1;jettySize=auto;html=1;endArrow=none;endFill=0;curved=0;entryX=0;entryY=0.25;entryDx=0;entryDy=0;" edge="1" parent="1" source="rwI5cfDztI2ORR7eqa7z-175" target="rwI5cfDztI2ORR7eqa7z-81">
          <mxGeometry relative="1" as="geometry">
            <mxPoint x="540" y="-110" as="targetPoint" />
          </mxGeometry>
        </mxCell>
        <mxCell id="rwI5cfDztI2ORR7eqa7z-174" value="(1,1)" style="edgeLabel;html=1;align=center;verticalAlign=middle;resizable=0;points=[];" vertex="1" connectable="0" parent="rwI5cfDztI2ORR7eqa7z-173">
          <mxGeometry x="0.4" relative="1" as="geometry">
            <mxPoint as="offset" />
          </mxGeometry>
        </mxCell>
        <mxCell id="rwI5cfDztI2ORR7eqa7z-175" value="Thuộc" style="rhombus;whiteSpace=wrap;html=1;fontSize=14;fontStyle=0;startSize=50;rounded=1;strokeWidth=2;shadow=0;dashed=0;arcSize=4;" vertex="1" parent="1">
          <mxGeometry x="580" y="205" width="70" height="50" as="geometry" />
        </mxCell>
        <mxCell id="rwI5cfDztI2ORR7eqa7z-178" style="edgeStyle=orthogonalEdgeStyle;rounded=1;orthogonalLoop=1;jettySize=auto;html=1;endArrow=none;endFill=0;curved=0;exitX=1;exitY=0.5;exitDx=0;exitDy=0;entryX=0.006;entryY=0.614;entryDx=0;entryDy=0;entryPerimeter=0;" edge="1" parent="1" source="rwI5cfDztI2ORR7eqa7z-180" target="rwI5cfDztI2ORR7eqa7z-84">
          <mxGeometry relative="1" as="geometry">
            <mxPoint x="690" y="220" as="targetPoint" />
            <Array as="points">
              <mxPoint x="681" y="155" />
            </Array>
          </mxGeometry>
        </mxCell>
        <mxCell id="rwI5cfDztI2ORR7eqa7z-179" value="(1,1)" style="edgeLabel;html=1;align=center;verticalAlign=middle;resizable=0;points=[];" vertex="1" connectable="0" parent="rwI5cfDztI2ORR7eqa7z-178">
          <mxGeometry x="0.4" relative="1" as="geometry">
            <mxPoint x="-6" as="offset" />
          </mxGeometry>
        </mxCell>
        <mxCell id="rwI5cfDztI2ORR7eqa7z-180" value="Có" style="rhombus;whiteSpace=wrap;html=1;fontSize=14;fontStyle=0;startSize=50;rounded=1;strokeWidth=2;shadow=0;dashed=0;arcSize=4;" vertex="1" parent="1">
          <mxGeometry x="580" y="130" width="70" height="50" as="geometry" />
        </mxCell>
        <mxCell id="rwI5cfDztI2ORR7eqa7z-198" style="edgeStyle=orthogonalEdgeStyle;rounded=1;orthogonalLoop=1;jettySize=auto;html=1;entryX=0.5;entryY=1;entryDx=0;entryDy=0;curved=0;endArrow=none;endFill=0;" edge="1" parent="1" source="rwI5cfDztI2ORR7eqa7z-192" target="rwI5cfDztI2ORR7eqa7z-72">
          <mxGeometry relative="1" as="geometry" />
        </mxCell>
        <mxCell id="rwI5cfDztI2ORR7eqa7z-201" value="(0, n)" style="edgeLabel;html=1;align=center;verticalAlign=middle;resizable=0;points=[];" vertex="1" connectable="0" parent="rwI5cfDztI2ORR7eqa7z-198">
          <mxGeometry x="0.15" y="-2" relative="1" as="geometry">
            <mxPoint as="offset" />
          </mxGeometry>
        </mxCell>
        <mxCell id="rwI5cfDztI2ORR7eqa7z-199" style="edgeStyle=orthogonalEdgeStyle;rounded=1;orthogonalLoop=1;jettySize=auto;html=1;entryX=-0.012;entryY=0.308;entryDx=0;entryDy=0;curved=0;endArrow=none;endFill=0;entryPerimeter=0;" edge="1" parent="1" source="rwI5cfDztI2ORR7eqa7z-192" target="rwI5cfDztI2ORR7eqa7z-94">
          <mxGeometry relative="1" as="geometry" />
        </mxCell>
        <mxCell id="rwI5cfDztI2ORR7eqa7z-200" value="(1, 1)" style="edgeLabel;html=1;align=center;verticalAlign=middle;resizable=0;points=[];" vertex="1" connectable="0" parent="rwI5cfDztI2ORR7eqa7z-199">
          <mxGeometry x="0.2" relative="1" as="geometry">
            <mxPoint as="offset" />
          </mxGeometry>
        </mxCell>
        <mxCell id="rwI5cfDztI2ORR7eqa7z-192" value="Thuộc" style="rhombus;whiteSpace=wrap;html=1;fontSize=14;fontStyle=0;startSize=50;rounded=1;strokeWidth=2;shadow=0;dashed=0;arcSize=4;" vertex="1" parent="1">
          <mxGeometry x="5" y="620" width="70" height="50" as="geometry" />
        </mxCell>
        <mxCell id="rwI5cfDztI2ORR7eqa7z-197" value="Có" style="rhombus;whiteSpace=wrap;html=1;fontSize=14;fontStyle=0;startSize=50;rounded=1;strokeWidth=2;shadow=0;dashed=0;arcSize=4;" vertex="1" parent="1">
          <mxGeometry x="395" y="640" width="70" height="50" as="geometry" />
        </mxCell>
        <mxCell id="rwI5cfDztI2ORR7eqa7z-202" style="edgeStyle=orthogonalEdgeStyle;rounded=1;orthogonalLoop=1;jettySize=auto;html=1;entryX=0.5;entryY=1;entryDx=0;entryDy=0;curved=0;endArrow=none;endFill=0;" edge="1" parent="1" source="rwI5cfDztI2ORR7eqa7z-197" target="rwI5cfDztI2ORR7eqa7z-70">
          <mxGeometry relative="1" as="geometry" />
        </mxCell>
        <mxCell id="rwI5cfDztI2ORR7eqa7z-204" value="(0, n)" style="edgeLabel;html=1;align=center;verticalAlign=middle;resizable=0;points=[];" vertex="1" connectable="0" parent="rwI5cfDztI2ORR7eqa7z-202">
          <mxGeometry x="0.221" relative="1" as="geometry">
            <mxPoint as="offset" />
          </mxGeometry>
        </mxCell>
        <mxCell id="rwI5cfDztI2ORR7eqa7z-203" style="edgeStyle=orthogonalEdgeStyle;rounded=1;orthogonalLoop=1;jettySize=auto;html=1;curved=0;endArrow=none;endFill=0;entryX=-0.021;entryY=0.893;entryDx=0;entryDy=0;entryPerimeter=0;" edge="1" parent="1" source="rwI5cfDztI2ORR7eqa7z-197" target="rwI5cfDztI2ORR7eqa7z-68">
          <mxGeometry relative="1" as="geometry">
            <mxPoint x="680" y="585" as="targetPoint" />
          </mxGeometry>
        </mxCell>
        <mxCell id="rwI5cfDztI2ORR7eqa7z-205" value="(1, 1)" style="edgeLabel;html=1;align=center;verticalAlign=middle;resizable=0;points=[];" vertex="1" connectable="0" parent="rwI5cfDztI2ORR7eqa7z-203">
          <mxGeometry x="0.3437" y="-2" relative="1" as="geometry">
            <mxPoint x="-8" as="offset" />
          </mxGeometry>
        </mxCell>
        <mxCell id="rwI5cfDztI2ORR7eqa7z-208" style="edgeStyle=orthogonalEdgeStyle;rounded=1;orthogonalLoop=1;jettySize=auto;html=1;entryX=0.989;entryY=0.365;entryDx=0;entryDy=0;entryPerimeter=0;curved=0;endArrow=none;endFill=0;" edge="1" parent="1" source="rwI5cfDztI2ORR7eqa7z-140" target="rwI5cfDztI2ORR7eqa7z-72">
          <mxGeometry relative="1" as="geometry" />
        </mxCell>
        <mxCell id="rwI5cfDztI2ORR7eqa7z-209" value="(0, n)" style="edgeLabel;html=1;align=center;verticalAlign=middle;resizable=0;points=[];" vertex="1" connectable="0" parent="rwI5cfDztI2ORR7eqa7z-208">
          <mxGeometry x="0.147" y="1" relative="1" as="geometry">
            <mxPoint as="offset" />
          </mxGeometry>
        </mxCell>
      </root>
    </mxGraphModel>
  </diagram>
</mxfile>
